<?xml version="1.0" encoding="UTF-8" standalone="no"?><!DOCTYPE svg PUBLIC "-//W3C//DTD SVG 1.1//EN" "http://www.w3.org/Graphics/SVG/1.1/DTD/svg11.dtd"><svg width="100%" height="100%" viewBox="0 0 100 100" version="1.1" xmlns="http://www.w3.org/2000/svg" xmlns:xlink="http://www.w3.org/1999/xlink" xml:space="preserve" xmlns:serif="http://www.serif.com/" style="fill-rule:evenodd;clip-rule:evenodd;stroke-linejoin:round;stroke-miterlimit:1.41421;"><rect id="insztagram" x="0" y="0" width="100" height="100" style="fill:none;"/><g><path d="M83.336,43.266l0,26.981c0,7.021 -5.715,12.731 -12.736,12.731l-40.431,0c-7.023,0 -12.734,-5.71 -12.734,-12.731l0,-26.981l0,-13.45c0,-7.023 5.711,-12.734 12.734,-12.734l40.431,0c7.021,0 12.736,5.711 12.736,12.734l0,13.45Z" style="fill:none;stroke:#ff3016;stroke-width:3px;"/><path d="M76.912,43.266l0,26.981c0,3.481 -2.831,6.312 -6.312,6.312l-40.431,0c-3.481,0 -6.311,-2.831 -6.311,-6.312l0,-26.981l9.836,0c-0.847,2.092 -1.322,4.369 -1.322,6.764c0,9.933 8.076,18.019 18.014,18.019c9.937,0 18.019,-8.086 18.019,-18.019c0,-2.392 -0.48,-4.672 -1.335,-6.764l9.842,0Zm-26.526,18.361c6.395,0 11.601,-5.202 11.601,-11.597c0,-2.523 -0.822,-4.861 -2.198,-6.764c-2.105,-2.92 -5.534,-4.837 -9.403,-4.837c-3.87,0 -7.294,1.917 -9.403,4.837c-1.376,1.903 -2.194,4.241 -2.194,6.764c0,6.395 5.202,11.597 11.597,11.597Zm25.322,-25.788l-11.131,0.037l-0.037,-11.165l9.716,-0.035l1.452,-0.005l0,11.168Z" style="fill:#ff3016;fill-rule:nonzero;"/></g></svg>