<?xml version="1.0" encoding="UTF-8" standalone="no"?><!DOCTYPE svg PUBLIC "-//W3C//DTD SVG 1.1//EN" "http://www.w3.org/Graphics/SVG/1.1/DTD/svg11.dtd"><svg width="100%" height="100%" viewBox="0 0 100 100" version="1.1" xmlns="http://www.w3.org/2000/svg" xmlns:xlink="http://www.w3.org/1999/xlink" xml:space="preserve" xmlns:serif="http://www.serif.com/" style="fill-rule:evenodd;clip-rule:evenodd;stroke-linejoin:round;stroke-miterlimit:1.41421;"><rect id="tfiter" x="0" y="0" width="100" height="100" style="fill:none;"/><path d="M76.591,37.225c0.028,0.579 0.039,1.161 0.039,1.749c0,17.868 -13.6,38.469 -38.468,38.469c-7.635,0 -14.744,-2.238 -20.727,-6.073c1.059,0.125 2.133,0.188 3.225,0.188c6.336,0 12.166,-2.162 16.792,-5.787c-5.916,-0.111 -10.907,-4.022 -12.629,-9.393c0.824,0.161 1.672,0.242 2.543,0.242c1.233,0 2.427,-0.161 3.562,-0.473c-6.187,-1.242 -10.848,-6.71 -10.848,-13.255c0,-0.059 0,-0.116 0.003,-0.175c1.821,1.014 3.906,1.621 6.124,1.693c-3.63,-2.429 -6.016,-6.562 -6.016,-11.255c0,-2.477 0.667,-4.802 1.831,-6.798c6.669,8.179 16.632,13.563 27.87,14.125c-0.231,-0.987 -0.35,-2.022 -0.35,-3.081c0,-7.464 6.052,-13.519 13.521,-13.519c3.889,0 7.401,1.643 9.868,4.268c3.08,-0.603 5.974,-1.732 8.586,-3.281c-1.013,3.159 -3.155,5.809 -5.948,7.48c2.739,-0.327 5.345,-1.055 7.767,-2.129c-1.808,2.717 -4.102,5.098 -6.745,7.005Z" style="fill:#ff3016;fill-rule:nonzero;"/></svg>